<svg xmlns="http://www.w3.org/2000/svg" version="1.1" xmlns:xlink="http://www.w3.org/1999/xlink" xmlns:svgjs="http://svgjs.dev/svgjs" width="100%" height="100%" viewBox="0 0 1000 600"><rect width="1000" height="600" x="0" y="0" fill="#f4efea"/><g><circle r="166.66666666666666" cx="348.78002421061194" cy="371.0022715866516" fill="#0d0a3d" transform="matrix(0.6863856566847305,0,0,0.6863856566847305,0,45.34937046198252)"/><path d="M312.76028622287663 296.00228671025206L312.76028622287663 296.00228671025206Q314.7599400205974 296.00228671025206 318.0580703103447 300.75471067106895Q321.356200600092 305.48116510204534 325.04387383744717 312.8824811065963Q328.7315470748024 320.28379711114724 332.0296773645497 328.46419901091406Q335.3018381244564 336.6186313808404 337.4053700415393 343.60443490794285Q339.50890195862223 350.5902384350454 339.50890195862223 354.3298507320817L339.50890195862223 354.3298507320817L339.50890195862223 411.41087732156586Q339.50890195862223 415.6958497452532 341.8461596442699 419.799035460057Q344.157447800077 423.90222117486064 348.468389753605 424.4475813015117L348.468389753605 424.4475813015117L348.468389753605 428.576736546156Q347.19588279141897 428.7585232550397 328.10827835862966 439.9773601461485L328.10827835862966 439.9773601461485Q323.8233059349423 438.15949305731135 320.3433889363113 434.4977893497967Q316.86347193768034 430.836085642282 316.86347193768034 427.6418334718969L316.86347193768034 427.6418334718969Q296.86693396047247 439.9773601461485 293.49089508120363 439.9773601461485L293.49089508120363 439.9773601461485Q292.3222662383798 439.9773601461485 288.556684411503 437.0428032741686L288.556684411503 437.0428032741686Q284.9209502338288 434.1342159320293 281.25924652631414 428.6546451356776Q277.62351234864 423.17507433932576 277.62351234864 417.33193012520667L277.62351234864 417.33193012520667L277.62351234864 350.5902384350454Q277.62351234864 348.7723713462083 309.20246063472405 337.70935163414265L309.20246063472405 337.70935163414265Q302.528291465708 323.114475863765 298.34719716138267 316.9077582318784L298.34719716138267 316.9077582318784Q294.21804191673846 310.9607358983971 290.2966429108185 310.9607358983971L290.2966429108185 310.9607358983971L284.193803398294 310.9607358983971L284.193803398294 305.29937839316165Q304.9174882110367 296.00228671025206 312.76028622287663 296.00228671025206ZM309.5660340524915 422.8115009215584L309.5660340524915 422.8115009215584Q313.22773776000616 422.8115009215584 316.86347193768034 419.799035460057L316.86347193768034 419.799035460057L316.86347193768034 354.6934241498491Q316.86347193768034 353.9662773143142 316.0843860424644 351.91468445691237Q315.3312696770891 349.86309159951054 314.39636660283 348.0971635703545Q313.48743305841145 346.30526601135796 312.9420729317604 346.30526601135796L312.9420729317604 346.30526601135796Q307.4625021354086 346.30526601135796 301.90502274953525 349.68130489062685L301.90502274953525 349.68130489062685L300.06118613085766 350.7720251439291L300.06118613085766 408.94377198671555Q300.06118613085766 422.8115009215584 309.5660340524915 422.8115009215584ZM380.51478957681854 308.8831735111547L380.51478957681854 308.8831735111547Q401.1345962701991 296.36586012801945 404.06915314217895 296.36586012801945L404.06915314217895 296.36586012801945Q405.5234468132486 296.36586012801945 408.1203997973016 298.52133110478337Q410.7173527813546 300.6508325517068 413.4701229444507 304.0268714309757Q416.19692357770634 307.4029103102446 418.0667297262245 311.1165530774403Q419.9365358747426 314.8042263147955 419.9365358747426 317.920569895659L419.9365358747426 317.920569895659L419.9365358747426 376.06634720860495Q419.9365358747426 376.71558545461824 415.70350251073626 378.71523925233896Q411.47046914672995 380.7148930500598 405.05599527611906 383.3378155639533Q398.66749093534884 385.9347685480062 392.0192912961732 388.34993482317554Q385.3451221271571 390.76510109834476 380.51478957681854 392.3232728887765L380.51478957681854 392.3232728887765L380.51478957681854 411.22909061268217Q380.51478957681854 418.05907696074144 381.96908324788825 421.07154242224294Q383.4233769189579 424.08400788374433 388.1758008797748 424.08400788374433L388.1758008797748 424.08400788374433L388.1758008797748 429.84924350834194L349.8188053053125 446.0022910691514L346.80633984381103 439.9773601461485Q350.93549508845524 439.9773601461485 354.6751073854915 435.14702759580996L354.6751073854915 435.14702759580996Q358.0511462647604 430.5763903438767 358.0511462647604 420.88975571335914L358.0511462647604 420.88975571335914L358.0511462647604 324.0234094081835Q358.0511462647604 312.622785808191 350.39013496180416 311.14252260728085L350.39013496180416 311.14252260728085L350.39013496180416 307.03933689247714L369.2699831558692 296.36586012801945Q373.0095954529055 297.9240319184512 376.77517727978227 301.84543092437116Q380.51478957681854 305.7668299302912 380.51478957681854 308.8831735111547ZM387.8122274620074 314.33677477766594L387.8122274620074 314.33677477766594Q384.5140971722601 314.33677477766594 380.51478957681854 317.08954494076215L380.51478957681854 317.08954494076215L380.51478957681854 383.5455718026775Q383.7869503367253 383.5455718026775 387.70834934264525 382.09127813160785Q391.65571787840577 380.6369844605382 394.4863966310235 378.4036048942527Q397.3170753836413 376.17022532796705 397.3170753836413 373.962815291522L397.3170753836413 373.962815291522L397.3170753836413 328.12659512298717Q397.3170753836413 314.33677477766594 387.8122274620074 314.33677477766594Z " fill="#f4efea" transform="matrix(0.6863856566847305,0,0,0.6863856566847305,0,45.34937046198252)"/><path d="M633.0621235398719 299.65093395522945L633.0621235398719 299.65093395522945Q635.0131370282417 299.65093395522945 638.2310423921763 304.28775821979673Q641.448947756111 308.8992446468527 645.0469206827152 316.1205283375723Q648.6448936093193 323.3418120282918 651.862798973254 331.3232308443503Q655.0553664996773 339.2793118228975 657.1077313380924 346.0951901134363Q659.1600961765074 352.91106840397504 659.1600961765074 356.5597170056018L659.1600961765074 356.5597170056018L659.1600961765074 412.252283855432Q659.1600961765074 416.43302704479584 661.4405015525241 420.4364053715808Q663.6955690910295 424.43978369836566 667.9016501179048 424.9718782861029L667.9016501179048 424.9718782861029L667.9016501179048 429.00059445039903Q666.6600960798512 429.17795931297815 648.0367855090482 440.12390511785827L648.0367855090482 440.12390511785827Q643.8560423196842 438.3502564920675 640.4607720931704 434.77762140297466Q637.0655018666566 431.2049863138818 637.0655018666566 428.0884322999924L637.0655018666566 428.0884322999924Q617.5553669829583 440.12390511785827 614.2614481064896 440.12390511785827L614.2614481064896 440.12390511785827Q613.1212454184813 440.12390511785827 609.4472589793434 437.26072947908176L609.4472589793434 437.26072947908176Q605.8999617277618 434.42289167781655 602.3273266386689 429.07660796293294Q598.7800293870873 423.7303242480493 598.7800293870873 418.0293108080076L598.7800293870873 418.0293108080076L598.7800293870873 352.91106840397504Q598.7800293870873 351.13741977818427 629.5908398008241 340.34350099837195L629.5908398008241 340.34350099837195Q623.0790155604209 326.1036363170232 618.9996237211021 320.04789315182325L618.9996237211021 320.04789315182325Q614.970907556806 314.2455283617363 611.1448940926002 314.2455283617363L611.1448940926002 314.2455283617363L605.1905022774454 314.2455283617363L605.1905022774454 308.72187978427365Q625.4100966114602 299.65093395522945 633.0621235398719 299.65093395522945ZM629.9455695259824 423.3755945228912L629.9455695259824 423.3755945228912Q633.5182046150751 423.3755945228912 637.0655018666566 420.4364053715808L637.0655018666566 420.4364053715808L637.0655018666566 356.91444673076Q637.0655018666566 356.2049872804437 636.3053667413178 354.2032981170512Q635.5705694534902 352.2016089536588 634.6584073030835 350.47863600289054Q633.7715829901881 348.73032521461107 633.2394884024509 348.73032521461107L633.2394884024509 348.73032521461107Q627.8932046875673 348.73032521461107 622.4709074601498 352.0242440910797L622.4709074601498 352.0242440910797L620.6719209968478 353.08843326655415L620.6719209968478 409.8451892918588Q620.6719209968478 423.3755945228912 629.9455695259824 423.3755945228912ZM699.1685416068448 312.21850136083265L699.1685416068448 312.21850136083265Q719.2867845908144 300.00566368038756 722.1499602295909 300.00566368038756L722.1499602295909 300.00566368038756Q723.5688791302235 300.00566368038756 726.1026628813532 302.10870419382525Q728.636446632483 304.1864068697515 731.3222574086805 307.48032574622016Q733.9827303473666 310.7742446226887 735.8070546481798 314.39755538680413Q737.6313789489933 317.9955283134083 737.6313789489933 321.03606881476384L737.6313789489933 321.03606881476384L737.6313789489933 377.7674870025571Q737.6313789489933 378.40093294033954 733.5013114346519 380.3519464287094Q729.3712439203106 382.3029599170792 723.1127980550203 384.8620815057202Q716.8796900272413 387.3958652568499 710.3932036243492 389.7522841454005Q703.881379383946 392.1087030339511 699.1685416068448 393.62897328462884L699.1685416068448 393.62897328462884L699.1685416068448 412.0749189928529Q699.1685416068448 418.7387702583238 700.5874605074774 421.67795940963424Q702.0063794081101 424.61714856094466 706.6432036726775 424.61714856094466L706.6432036726775 424.61714856094466L706.6432036726775 430.2421484884526L669.2192176684921 446.0022834204791L666.2800285171818 440.12390511785827Q670.308744681478 440.12390511785827 673.9573932831047 435.4110673407571L673.9573932831047 435.4110673407571Q677.2513121595732 430.9516079387689 677.2513121595732 421.50059454705524L677.2513121595732 421.50059454705524L677.2513121595732 326.9904606299186Q677.2513121595732 315.8671499624593 669.7766500937407 314.42289322431543L669.7766500937407 314.42289322431543L669.7766500937407 310.4195148975306L688.1972579644535 300.00566368038756Q691.8459065660802 301.5259339310654 695.5198930052183 305.35194739527117Q699.1685416068448 309.177960859477 699.1685416068448 312.21850136083265ZM706.2884739475193 317.5394472382049L706.2884739475193 317.5394472382049Q703.0705685835845 317.5394472382049 699.1685416068448 320.22525801440236L699.1685416068448 320.22525801440236L699.1685416068448 385.0647842058106Q702.3611091332683 385.0647842058106 706.1871225974741 383.64586530517795Q710.0384738991912 382.2269464045454 712.8002981879225 380.0478923785738Q715.5621224766538 377.8688383526023 715.5621224766538 375.71512216414214L715.5621224766538 375.71512216414214L715.5621224766538 330.9938389567035Q715.5621224766538 317.5394472382049 706.2884739475193 317.5394472382049ZM745.030027502292 351.13741977818427L745.030027502292 351.13741977818427L745.030027502292 347.1340414513994L765.0722569737276 336.162757809008Q765.7817164240438 336.3401226715871 766.5418515493828 336.5681632091887Q767.3019866747217 336.7962037467904 768.1888109876171 337.1509334719485L768.1888109876171 337.1509334719485Q769.9877974509192 337.78437940973095 772.9269866022295 340.72356856104136Q775.86617575354 343.6627577123518 775.86617575354 347.3114063139785L775.86617575354 347.3114063139785Q776.474283853811 347.0326901013542 784.5063783448921 341.5090415238916L784.5063783448921 341.5090415238916Q792.2597566233488 336.162757809008 794.4641484868317 336.162757809008L794.4641484868317 336.162757809008Q798.3915133010827 336.162757809008 802.090837577732 339.81140641063473Q805.7901618543814 343.48539284977267 808.1465807429319 348.50228467700947Q810.5029996314826 353.54451434175746 810.5029996314826 357.82660888116664L810.5029996314826 357.82660888116664L810.5029996314826 366.821541197677L791.7023241981004 377.3114059273538L788.5857701842109 374.8282978512467Q788.5857701842109 359.6002575069574 785.7479323829456 357.2691764559181L785.7479323829456 357.2691764559181Q782.3526621564318 354.9634332423901 775.86617575354 354.9634332423901L775.86617575354 354.9634332423901L775.86617575354 413.1391081683273Q775.86617575354 424.18640532325264 783.3408378193725 425.6813377364192L783.3408378193725 425.6813377364192L783.3408378193725 429.71005390071537L764.8948921111486 440.12390511785827Q760.8915137843636 438.5276213546466 757.4202300453161 434.77762140297466Q753.9489463062683 431.0276214513027 753.9489463062683 427.7337025748342L753.9489463062683 427.7337025748342L753.9489463062683 367.1762709228351Q753.9489463062683 359.1441764317541 751.1364463425144 355.14079810496924Q748.3239463787605 351.13741977818427 745.030027502292 351.13741977818427ZM876.1533366232524 360.20836560722853L876.1533366232524 360.20836560722853L876.1533366232524 411.89755413027376Q876.1533366232524 418.5614053957448 878.3323906492238 421.2472161719422Q880.5367825127067 423.90768911062844 885.0722554272287 424.9718782861029L885.0722554272287 424.9718782861029L885.0722554272287 429.00059445039903L865.2073908183721 440.12390511785827Q861.2040124915872 438.5276213546466 857.7327287525396 434.77762140297466Q854.2361071759807 431.0276214513027 854.2361071759807 427.9110674374133L854.2361071759807 427.9110674374133L831.4320534158136 440.12390511785827Q831.1786750407006 439.94654025527916 830.77326964052 439.71849971767756Q830.3678642403391 439.49045918007585 829.8357696526019 439.13572945491774L829.8357696526019 439.13572945491774Q828.6702291270823 438.5276213546466 826.0604318634188 436.3739051661863Q823.4252967622439 434.24552681523744 821.3729319238288 431.93978360170945L821.3729319238288 431.93978360170945Q815.9506346964114 425.9600539490434 815.9506346964114 418.2066756705866L815.9506346964114 418.2066756705866L815.9506346964114 388.28268956974523Q815.9506346964114 386.33167608137535 820.4354319359107 383.56985179264404Q824.9455670129217 380.80802750391274 831.5334047658588 378.04620321518144Q838.1212425187958 375.28437892645 844.3543505465749 373.30802760056895L844.3543505465749 373.30802760056895L854.0587423134015 370.2928249367246Q854.0587423134015 363.35025745862936 851.7529990998736 359.2962034568219Q849.4472558863455 355.2421494550143 843.6955667712813 353.44316299171226Q837.9438776562168 351.6695143659216 827.4286750890286 351.6695143659216L827.4286750890286 351.6695143659216L827.4286750890286 346.1458657884589Q855.5029990515455 336.162757809008 859.1516476531721 336.162757809008L859.1516476531721 336.162757809008Q863.231039492491 336.162757809008 867.1077286317194 339.86208208565733Q870.9844177709477 343.56140636230657 873.5688771971 349.0850549397693Q876.1533366232524 354.608703517232 876.1533366232524 360.20836560722853ZM837.867864143683 399.7607299623627L837.867864143683 411.72018926769465Q837.867864143683 416.33167569475074 840.7057019449481 419.37221619610625L840.7057019449481 419.37221619610625Q843.5688775837247 422.38741885995057 847.0401613227724 422.36208102243927Q850.5114450618199 422.31140534741667 854.2361071759807 419.7269459212645L854.2361071759807 419.7269459212645L854.2361071759807 378.47694645287345Q849.7006342614585 380.0732302160851 847.4202288854418 381.18809506658215Q845.1651613469363 382.3029599170792 842.5807019207842 384.6340409681185L842.5807019207842 384.6340409681185Q837.867864143683 389.09350037010677 837.867864143683 399.7607299623627L837.867864143683 399.7607299623627ZM894.3205661188521 427.7337025748342L894.3205661188521 427.7337025748342L894.3205661188521 365.83336553473634Q894.3205661188521 359.8536358820704 891.7867823677224 355.49552783012734Q889.2529986165927 351.13741977818427 885.4269851523869 351.13741977818427L885.4269851523869 351.13741977818427L885.4269851523869 347.1340414513994Q886.6685391904404 346.8553252387752 905.2918497612435 335.9853929464289L905.2918497612435 335.9853929464289Q906.0013092115597 336.162757809008 906.8121200119214 336.3907983466097Q907.5975929747714 336.6188388842113 908.4844172876668 336.9735686093694L908.4844172876668 336.9735686093694Q910.2834037509689 337.60701454715183 913.2732685773018 340.54620369846225Q916.2377955661237 343.48539284977267 916.2377955661237 347.3114063139785L916.2377955661237 347.3114063139785Q917.5807009542224 346.500595513617 922.4709035939026 343.8401225749309L922.4709035939026 343.8401225749309Q936.0266466624463 336.162757809008 939.1432006763358 336.162757809008L939.1432006763358 336.162757809008Q942.3357682027591 336.162757809008 946.2631330170101 339.4313388479652Q950.1904978312613 342.67458204941124 952.2428626696761 347.3114063139785L952.2428626696761 347.3114063139785Q952.4202275322554 347.2100549639333 954.26988967058 346.2472171385041Q956.1448896464159 345.25904147556344 959.7175247355088 343.48539284977267L959.7175247355088 343.48539284977267Q973.7800245542784 336.162757809008 976.8205650556339 336.162757809008L976.8205650556339 336.162757809008Q980.7479298698851 336.162757809008 984.421916309023 339.81140641063473Q988.1212405856724 343.48539284977267 990.5029973117342 348.50228467700947Q992.8594162002847 353.54451434175746 992.8594162002847 357.82660888116664L992.8594162002847 357.82660888116664L992.8594162002847 413.1391081683273Q992.8594162002847 423.1982296603121 1001.8543485167951 424.9718782861029L1001.8543485167951 424.9718782861029L1001.8543485167951 429.00059445039903L981.8881325578933 440.12390511785827Q977.8847542311086 438.5276213546466 974.4641461670834 434.77762140297466Q971.0182002655471 431.0276214513027 971.0182002655471 427.7337025748342L971.0182002655471 427.7337025748342L971.0182002655471 373.9414735383514Q971.0182002655471 362.0073520705306 967.9016462516576 358.07998725627965L967.9016462516576 358.07998725627965Q964.785092237768 354.1526224420286 959.8948895980878 354.1526224420286L959.8948895980878 354.1526224420286L954.5486058832042 355.31816296754823L954.5486058832042 413.1391081683273Q954.5486058832042 423.1982296603121 963.5435381997146 424.9718782861029L963.5435381997146 424.9718782861029L963.5435381997146 429.00059445039903L943.602660078324 440.12390511785827Q939.5739439140278 438.5276213546466 936.1026601749803 434.77762140297466Q932.6313764359326 431.0276214513027 932.6313764359326 427.7337025748342L932.6313764359326 427.7337025748342L932.6313764359326 374.8282978512467Q932.6313764359326 353.7978927168705 922.6482684564818 353.7978927168705L922.6482684564818 353.7978927168705L916.2377955661237 354.9634332423901L916.2377955661237 413.1391081683273Q916.2377955661237 424.18640532325264 923.7377954694674 425.6813377364192L923.7377954694674 425.6813377364192L923.7377954694674 429.71005390071537L905.2918497612435 440.12390511785827Q901.2884714344585 438.5276213546466 897.817187695411 434.77762140297466Q894.3205661188521 431.0276214513027 894.3205661188521 427.7337025748342ZM1067.580699021099 360.20836560722853L1067.580699021099 360.20836560722853L1067.580699021099 411.89755413027376Q1067.580699021099 418.5614053957448 1069.7597530470703 421.2472161719422Q1071.964144910553 423.90768911062844 1076.4996178250753 424.9718782861029L1076.4996178250753 424.9718782861029L1076.4996178250753 429.00059445039903L1056.6347532162185 440.12390511785827Q1052.6313748894336 438.5276213546466 1049.160091150386 434.77762140297466Q1045.6634695738271 431.0276214513027 1045.6634695738271 427.9110674374133L1045.6634695738271 427.9110674374133L1022.8594158136601 440.12390511785827Q1022.6060374385471 439.94654025527916 1022.2006320383663 439.71849971767756Q1021.7952266381857 439.49045918007585 1021.2631320504485 439.13572945491774L1021.2631320504485 439.13572945491774Q1020.12292936244 438.5276213546466 1017.4877942612653 436.3739051661863Q1014.8526591600904 434.24552681523744 1012.8002943216753 431.93978360170945L1012.8002943216753 431.93978360170945Q1007.3779970942579 425.9600539490434 1007.3779970942579 418.2066756705866L1007.3779970942579 418.2066756705866L1007.3779970942579 388.28268956974523Q1007.3779970942579 386.33167608137535 1011.8627943337573 383.56985179264404Q1016.3729294107683 380.80802750391274 1022.9607671637053 378.04620321518144Q1029.5486049166425 375.28437892645 1035.7817129444215 373.30802760056895L1035.7817129444215 373.30802760056895L1045.4861047112481 370.2928249367246Q1045.4861047112481 363.35025745862936 1043.1803614977202 359.2962034568219Q1040.874618284192 355.2421494550143 1035.122929169128 353.44316299171226Q1029.3712400540635 351.6695143659216 1018.8560374868752 351.6695143659216L1018.8560374868752 351.6695143659216L1018.8560374868752 346.1458657884589Q1046.930361449392 336.162757809008 1050.5790100510185 336.162757809008L1050.5790100510185 336.162757809008Q1054.6837397278487 336.162757809008 1058.5350910295656 339.86208208565733Q1062.4117801687944 343.56140636230657 1064.9962395949465 349.0850549397693Q1067.580699021099 354.608703517232 1067.580699021099 360.20836560722853ZM1029.2952265415292 399.7607299623627L1029.2952265415292 411.72018926769465Q1029.2952265415292 416.33167569475074 1032.1330643427946 419.37221619610625L1032.1330643427946 419.37221619610625Q1034.9962399815713 422.38741885995057 1038.4675237206188 422.36208102243927Q1041.9388074596664 422.31140534741667 1045.6634695738271 419.7269459212645L1045.6634695738271 419.7269459212645L1045.6634695738271 378.47694645287345Q1041.1279966593052 380.0732302160851 1038.8729291207997 381.18809506658215Q1036.5925237447827 382.3029599170792 1034.0080643186307 384.6340409681185L1034.0080643186307 384.6340409681185Q1029.2952265415292 389.09350037010677 1029.2952265415292 399.7607299623627L1029.2952265415292 399.7607299623627ZM1085.7732663542097 427.7337025748342L1085.7732663542097 427.7337025748342L1085.7732663542097 365.83336553473634Q1085.7732663542097 359.8536358820704 1083.214144765569 355.49552783012734Q1080.6803610144393 351.13741977818427 1076.8543475502333 351.13741977818427L1076.8543475502333 351.13741977818427L1076.8543475502333 347.1340414513994Q1078.0959015882868 346.8553252387752 1096.7192121590901 335.9853929464289L1096.7192121590901 335.9853929464289Q1097.4286716094061 336.162757809008 1098.2394824097678 336.3907983466097Q1099.024955372618 336.6188388842113 1099.9371175230244 336.9735686093694L1099.9371175230244 336.9735686093694Q1101.7107661488153 337.60701454715183 1104.7006309751482 340.54620369846225Q1107.6651579639702 343.48539284977267 1107.6651579639702 347.3114063139785L1107.6651579639702 347.3114063139785Q1109.0080633520688 346.500595513617 1113.8982659917492 343.8401225749309L1113.8982659917492 343.8401225749309Q1127.4540090602927 336.162757809008 1129.9371171364 336.162757809008L1129.9371171364 336.162757809008Q1133.8644819506508 336.162757809008 1137.5638062273001 339.81140641063473Q1141.2631305039495 343.48539284977267 1143.6195493925002 348.50228467700947Q1145.9759682810509 353.54451434175746 1145.9759682810509 357.82660888116664L1145.9759682810509 357.82660888116664L1145.9759682810509 413.1391081683273Q1145.9759682810509 423.1982296603121 1154.970900597561 424.9718782861029L1154.970900597561 424.9718782861029L1154.970900597561 429.00059445039903L1135.0300224761704 440.12390511785827Q1131.0013063118745 438.5276213546466 1127.5300225728265 434.77762140297466Q1124.058738833779 431.0276214513027 1124.058738833779 427.7337025748342L1124.058738833779 427.7337025748342L1124.058738833779 374.8282978512467Q1124.058738833779 364.5918114966829 1121.8036712952735 359.1948521067767Q1119.523265919257 353.7978927168705 1113.7209011291702 353.7978927168705L1113.7209011291702 353.7978927168705L1107.6651579639702 354.9634332423901L1107.6651579639702 413.1391081683273Q1107.6651579639702 424.18640532325264 1115.165157867314 425.6813377364192L1115.165157867314 425.6813377364192L1115.165157867314 429.71005390071537L1096.7192121590901 440.12390511785827Q1092.7158338323052 438.5276213546466 1089.2445500932572 434.77762140297466Q1085.7732663542097 431.0276214513027 1085.7732663542097 427.7337025748342ZM1161.381373487919 313.358704048841L1161.381373487919 313.358704048841L1161.381373487919 302.2353933813817Q1161.381373487919 301.95667716875744 1163.661778863936 300.9938393433282Q1165.9421842399524 300.00566368038756 1169.0080625788196 298.8401231548679Q1172.0739409176863 297.69992046685957 1174.607724668816 296.83843399147554Q1177.166846257457 296.0022853536027 1177.774954357728 296.0022853536027L1177.774954357728 296.0022853536027Q1179.0165083957818 296.0022853536027 1181.2462380967759 299.1188393674922Q1183.47596779777 302.2353933813817 1183.47596779777 305.5293122578503L1183.47596779777 305.5293122578503L1183.47596779777 318.8063391137697Q1183.47596779777 319.0597174888827 1181.2969137717982 320.04789315182325Q1179.117859745827 321.03606881476384 1176.1786705945165 322.17627150277224Q1173.239481443206 323.3418120282918 1170.6550220170539 324.1779606661646Q1168.0705625909013 325.03944714154875 1167.2597517905397 325.03944714154875L1167.2597517905397 325.03944714154875Q1165.1313734395912 325.03944714154875 1163.2563734637552 321.390798539922Q1161.381373487919 317.74214993829526 1161.381373487919 313.358704048841ZM1186.060427223922 348.5529603520321L1186.060427223922 348.5529603520321L1186.060427223922 413.1391081683273Q1186.060427223922 424.18640532325264 1193.5350892897545 425.6813377364192L1193.5350892897545 425.6813377364192L1193.5350892897545 429.71005390071537L1175.114481419042 440.12390511785827Q1171.0857652547456 438.5276213546466 1167.6144815156981 434.77762140297466Q1164.1431977766506 431.0276214513027 1164.1431977766506 427.7337025748342L1164.1431977766506 427.7337025748342L1164.1431977766506 363.14755475853894Q1164.1431977766506 351.9482305785458 1156.668535710818 350.50397384040195L1156.668535710818 350.50397384040195L1156.668535710818 346.500595513617L1175.114481419042 336.162757809008Q1179.117859745827 337.78437940973095 1182.5891434848745 341.5090415238916Q1186.060427223922 345.25904147556344 1186.060427223922 348.5529603520321ZM1226.1448861667936 392.7421489717335L1226.1448861667936 392.7421489717335L1226.1448861667936 413.1391081683273Q1226.1448861667936 424.18640532325264 1233.6195482326261 425.6813377364192L1233.6195482326261 425.6813377364192L1233.6195482326261 429.71005390071537L1215.1989403619132 440.12390511785827Q1211.1955620351287 438.5276213546466 1207.6989404585697 434.77762140297466Q1204.2276567195217 431.0276214513027 1204.2276567195217 427.7337025748342L1204.2276567195217 427.7337025748342L1204.2276567195217 337.40431184706154Q1204.2276567195217 332.51410920738124 1202.5806972812875 330.43640653145496Q1200.9337378430532 328.3333660180173 1196.9303595162683 328.3333660180173L1196.9303595162683 328.3333660180173L1196.9303595162683 323.1644471657128Q1208.7884674715551 316.93133913793383 1219.3796835512771 311.10363651033555Q1229.9708996309992 305.250596045226 1239.244548160134 299.82829881780856L1239.244548160134 299.82829881780856L1242.1837373114445 305.7066771204294Q1240.3087373356084 306.5935014333247 1237.0654941341622 309.2286365344996Q1233.7969130952051 311.8384337981631 1231.5925212317225 314.6002580868945L1231.5925212317225 314.6002580868945Q1226.1448861667936 321.4668120524559 1226.1448861667936 330.28437950638715L1226.1448861667936 330.28437950638715L1226.1448861667936 347.1340414513994Q1243.1719129743851 336.162757809008 1246.1871156382294 336.162757809008L1246.1871156382294 336.162757809008Q1249.5823858647432 336.162757809008 1253.661777704062 339.2539739853862Q1257.7665073808917 342.319852324253 1260.756372207225 347.2100549639333Q1263.746237033558 352.1255954411249 1263.746237033558 357.6492440185875L1263.746237033558 357.6492440185875L1263.746237033558 377.590122139978Q1263.746237033558 379.465122115814 1244.7681967375966 386.8637706691127L1244.7681967375966 386.8637706691127Q1256.246237130214 417.3198513576913 1267.1161694225602 421.85532427221335L1267.1161694225602 421.85532427221335Q1270.334074786495 423.4769458729363 1274.7935341884831 423.90768911062844L1274.7935341884831 423.90768911062844L1274.7935341884831 429.17795931297815Q1257.8678587309369 440.12390511785827 1253.484412841483 440.12390511785827L1253.484412841483 440.12390511785827Q1251.1786696279546 440.12390511785827 1248.1634669641103 436.77931056636714Q1245.1229264627545 433.4347160148759 1241.829007586286 428.0124187874585Q1238.5350887098175 422.5647837225297 1235.4945482084622 416.20498650719423Q1232.479345544618 409.8451892918588 1230.021575306022 403.63741910159104Q1227.563805067426 397.4549867488347 1226.1448861667936 392.7421489717335ZM1231.9472509568805 353.7978927168705L1231.9472509568805 353.7978927168705L1226.1448861667936 354.786068379811L1226.1448861667936 383.74721665522316Q1229.7935347684202 383.74721665522316 1239.244548160134 379.1864059031898L1239.244548160134 379.1864059031898L1242.5384670366025 377.590122139978L1242.5384670366025 369.304649273784Q1242.5384670366025 353.7978927168705 1231.9472509568805 353.7978927168705Z " fill="#1b1675" transform="matrix(0.6863856566847305,0,0,0.6863856566847305,0,45.34937046198252)"/></g></svg>